<svg width="142" height="86" viewBox="0 0 142 86" fill="none" xmlns="http://www.w3.org/2000/svg">
<path d="M5.9665 78.5191C6.56093 78.7281 7.19916 78.7804 7.8197 78.6711C8.44023 78.5618 9.02216 78.2945 9.50942 77.8951C10.7503 76.8535 11.1395 75.138 11.4559 73.5492L12.3923 68.8496L10.432 70.1994C9.02214 71.1701 7.58065 72.172 6.60459 73.5779C5.62853 74.9839 5.2027 76.9033 5.98671 78.4247" fill="#E6E6E6"/>
<path d="M6.26904 84.5358C6.02231 82.7382 5.76845 80.9174 5.94194 79.1006C6.09568 77.487 6.58797 75.9113 7.59021 74.6187C8.12219 73.9341 8.76952 73.3475 9.50308 72.8853C9.69432 72.7646 9.87038 73.0677 9.67995 73.1879C8.41065 73.99 7.42888 75.1745 6.87618 76.5706C6.26577 78.1231 6.16776 79.8155 6.2729 81.4647C6.33645 82.4621 6.4715 83.4528 6.60713 84.4425C6.61784 84.4872 6.61116 84.5344 6.58843 84.5744C6.5657 84.6144 6.52863 84.6443 6.48471 84.658C6.4399 84.6701 6.39214 84.664 6.35178 84.6411C6.31143 84.6181 6.28175 84.5802 6.26917 84.5356L6.26904 84.5358Z" fill="#F2F2F2"/>
<path d="M8.04541 81.6544C8.30031 82.042 8.65074 82.3573 9.06292 82.5701C9.4751 82.7829 9.93514 82.886 10.3987 82.8694C11.5903 82.8128 12.5833 81.9815 13.4771 81.192L16.1214 78.8573L14.3714 78.7735C13.1129 78.7132 11.8219 78.6567 10.6231 79.0453C9.4244 79.4338 8.31889 80.3675 8.09974 81.6083" fill="#E6E6E6"/>
<path d="M5.57237 85.5726C6.76023 83.4709 8.13794 81.135 10.5999 80.3883C11.2844 80.1815 12.0021 80.1074 12.7144 80.17C12.9389 80.1894 12.8829 80.5354 12.6588 80.5162C11.4648 80.417 10.273 80.7323 9.28422 81.4089C8.33269 82.0566 7.59179 82.9571 6.9648 83.9119C6.58068 84.4968 6.23663 85.1065 5.89258 85.7154C5.78265 85.91 5.46115 85.7695 5.57237 85.5726Z" fill="#F2F2F2"/>
<path d="M124.793 2.69336H26.5537V49.3098H124.793V2.69336Z" fill="#E6E6E6"/>
<path d="M121.985 6.69141H29.3633V45.5849H121.985V6.69141Z" fill="white"/>
<path d="M124.751 0H26.5112V4.17351H124.751V0Z" fill="#6C63FF"/>
<path d="M29.6134 2.70334C30.0406 2.70334 30.3869 2.35701 30.3869 1.92979C30.3869 1.50258 30.0406 1.15625 29.6134 1.15625C29.1862 1.15625 28.8398 1.50258 28.8398 1.92979C28.8398 2.35701 29.1862 2.70334 29.6134 2.70334Z" fill="white"/>
<path d="M32.5504 2.70334C32.9776 2.70334 33.3239 2.35701 33.3239 1.92979C33.3239 1.50258 32.9776 1.15625 32.5504 1.15625C32.1232 1.15625 31.7769 1.50258 31.7769 1.92979C31.7769 2.35701 32.1232 2.70334 32.5504 2.70334Z" fill="white"/>
<path d="M35.4864 2.70334C35.9137 2.70334 36.26 2.35701 36.26 1.92979C36.26 1.50258 35.9137 1.15625 35.4864 1.15625C35.0592 1.15625 34.7129 1.50258 34.7129 1.92979C34.7129 2.35701 35.0592 2.70334 35.4864 2.70334Z" fill="white"/>
<path d="M51.2388 36.4824H98.0507V28.459C98.0436 27.613 97.8675 26.7769 97.5329 25.9998C97.1983 25.2227 96.7118 24.5203 96.1021 23.9338L96.0894 23.9213C95.2533 23.0824 92.4591 20.9533 89.568 21.1339C88.0409 21.2289 86.7334 21.9649 85.682 23.3214C82.4093 27.5454 78.1104 26.1195 75.8391 24.8937C73.8374 23.8132 71.7932 23.306 69.7628 23.3867C66.9192 23.4979 62.9169 24.5455 59.998 28.9047C58.8832 30.5683 56.4587 32.8265 51.2388 34.1536V36.4824Z" fill="#E4E4E4"/>
<path d="M100.699 36.6676H51.3288C51.2878 36.6676 51.2486 36.6513 51.2196 36.6223C51.1906 36.5933 51.1743 36.554 51.1743 36.5131V12.8498C51.1743 12.8088 51.1906 12.7695 51.2196 12.7406C51.2485 12.7116 51.2878 12.6953 51.3288 12.6953C51.3698 12.6953 51.4091 12.7116 51.4381 12.7406C51.4671 12.7695 51.4833 12.8088 51.4833 12.8498V36.3585H100.699C100.74 36.3585 100.78 36.3748 100.808 36.4038C100.837 36.4328 100.854 36.4721 100.854 36.5131C100.854 36.554 100.837 36.5933 100.808 36.6223C100.78 36.6513 100.74 36.6676 100.699 36.6676Z" fill="#3F3D56"/>
<path d="M60.72 27.5723H60.417V36.4545H60.72V27.5723Z" fill="#3F3D56"/>
<path d="M69.7928 23.4219H69.4897V36.4525H69.7928V23.4219Z" fill="#3F3D56"/>
<path d="M78.8831 26.1484H78.5801V36.4517H78.8831V26.1484Z" fill="#3F3D56"/>
<path d="M87.9754 21.1504H87.6724V36.4538H87.9754V21.1504Z" fill="#3F3D56"/>
<path d="M97.0657 24.6367H96.7627V36.4552H97.0657V24.6367Z" fill="#3F3D56"/>
<path d="M69.6595 24.5592C70.1715 24.5592 70.5865 24.1441 70.5865 23.6321C70.5865 23.1201 70.1715 22.7051 69.6595 22.7051C69.1475 22.7051 68.7324 23.1201 68.7324 23.6321C68.7324 24.1441 69.1475 24.5592 69.6595 24.5592Z" fill="#6C63FF"/>
<path d="M87.8416 22.1334C88.3536 22.1334 88.7686 21.7183 88.7686 21.2063C88.7686 20.6943 88.3536 20.2793 87.8416 20.2793C87.3296 20.2793 86.9146 20.6943 86.9146 21.2063C86.9146 21.7183 87.3296 22.1334 87.8416 22.1334Z" fill="#6C63FF"/>
<path d="M78.7513 27.1334C79.2633 27.1334 79.6783 26.7183 79.6783 26.2063C79.6783 25.6943 79.2633 25.2793 78.7513 25.2793C78.2393 25.2793 77.8242 25.6943 77.8242 26.2063C77.8242 26.7183 78.2393 27.1334 78.7513 27.1334Z" fill="#6C63FF"/>
<path d="M60.5686 28.4986C61.0806 28.4986 61.4957 28.0836 61.4957 27.5716C61.4957 27.0596 61.0806 26.6445 60.5686 26.6445C60.0567 26.6445 59.6416 27.0596 59.6416 27.5716C59.6416 28.0836 60.0567 28.4986 60.5686 28.4986Z" fill="#6C63FF"/>
<path d="M96.9334 25.4654C97.4454 25.4654 97.8604 25.0504 97.8604 24.5384C97.8604 24.0264 97.4454 23.6113 96.9334 23.6113C96.4214 23.6113 96.0063 24.0264 96.0063 24.5384C96.0063 25.0504 96.4214 25.4654 96.9334 25.4654Z" fill="#6C63FF"/>
<path d="M20.7459 84.1631H22.6035L23.4872 76.998L20.7456 76.9982L20.7459 84.1631Z" fill="#FFB6B6"/>
<path d="M20.2715 83.5568L23.9298 83.5566C24.5481 83.5567 25.1412 83.8023 25.5784 84.2395C26.0156 84.6767 26.2612 85.2697 26.2613 85.888V85.9637L20.2716 85.9639L20.2715 83.5568Z" fill="#2F2E41"/>
<path d="M29.5335 84.1631H31.3911L32.2748 76.998L29.5332 76.9982L29.5335 84.1631Z" fill="#FFB6B6"/>
<path d="M29.0591 83.5568L32.7174 83.5566C33.3357 83.5567 33.9288 83.8023 34.366 84.2395C34.8032 84.6767 35.0488 85.2697 35.0488 85.888V85.9637L29.0592 85.9639L29.0591 83.5568Z" fill="#2F2E41"/>
<path d="M33.0003 51.4083C33.1573 51.2295 33.2732 51.0184 33.3398 50.79C33.4064 50.5615 33.4221 50.3212 33.3859 50.0861C33.3496 49.8509 33.2621 49.6265 33.1298 49.4288C32.9974 49.231 32.8232 49.0647 32.6196 48.9416L29.5966 34.4277L26.3032 35.7253L30.3103 49.5839C30.1261 49.9397 30.0788 50.3507 30.1773 50.739C30.2759 51.1273 30.5134 51.466 30.845 51.6909C31.1766 51.9158 31.5791 52.0112 31.9764 51.9591C32.3736 51.907 32.7379 51.711 33.0003 51.4083Z" fill="#FFB6B6"/>
<path d="M18.7526 48.6109L17.3834 50.0008C17.3834 50.0008 15.9154 55.3802 18.7245 62.0146L20.6033 81.2499L23.9837 81.5044L24.9928 59.1258L29.649 66.5541L28.8357 81.4249L32.5723 81.339L34.2611 64.861L29.649 47.666L18.7526 48.6109Z" fill="#2F2E41"/>
<path d="M23.5409 50.4852C21.4792 50.4708 19.4201 50.3348 17.3743 50.0779L17.292 50.0669L19.3324 41.0992L18.6298 29.5609L25.2645 29.3336C25.8651 29.3119 26.4526 29.5127 26.9141 29.8976C27.3757 30.2825 27.6788 30.8243 27.7653 31.4191L29.1232 40.6247L30.3793 48.7919L30.3625 48.8165C29.4598 50.14 26.4418 50.4852 23.5409 50.4852Z" fill="#6C63FF"/>
<path d="M24.6606 31.2423L26.0087 29.5524C26.0087 29.5524 28.3719 27.9363 29.1198 31.3994C29.8678 34.8625 31.2574 40.4845 31.2574 40.4845L26.6364 40.8588L24.6606 31.2423Z" fill="#6C63FF"/>
<path d="M11.8855 51.5587C11.7285 51.3799 11.6126 51.1688 11.546 50.9403C11.4794 50.7119 11.4637 50.4716 11.5 50.2364C11.5363 50.0013 11.6237 49.7769 11.7561 49.5792C11.8885 49.3814 12.0626 49.2151 12.2662 49.092L15.2892 34.5781L18.5826 35.8757L14.5755 49.7343C14.7597 50.0901 14.8071 50.5011 14.7085 50.8894C14.61 51.2777 14.3724 51.6164 14.0409 51.8413C13.7093 52.0662 13.3067 52.1616 12.9095 52.1095C12.5123 52.0574 12.1479 51.8614 11.8855 51.5587Z" fill="#FFB6B6"/>
<path d="M20.2256 31.3927L18.8776 29.7028C18.8776 29.7028 16.5144 28.0867 15.7664 31.5498C15.0185 35.0129 13.6289 40.6349 13.6289 40.6349L18.2499 41.0091L20.2256 31.3927Z" fill="#6C63FF"/>
<path d="M25.9069 27.6453H17.1188C16.9381 27.6451 16.7648 27.5732 16.6369 27.4454C16.5091 27.3175 16.4372 27.1442 16.437 26.9635V23.1755C16.437 21.8293 16.9718 20.5382 17.9237 19.5863C18.8756 18.6344 20.1667 18.0996 21.5129 18.0996C22.8591 18.0996 24.1502 18.6344 25.1021 19.5863C26.054 20.5382 26.5888 21.8293 26.5888 23.1755V26.9635C26.5886 27.1442 26.5167 27.3175 26.3888 27.4454C26.261 27.5732 26.0877 27.6451 25.9069 27.6453Z" fill="#2F2E41"/>
<path d="M22.4832 27.4175C24.5385 27.4175 26.2046 25.7514 26.2046 23.6961C26.2046 21.6408 24.5385 19.9746 22.4832 19.9746C20.4279 19.9746 18.7617 21.6408 18.7617 23.6961C18.7617 25.7514 20.4279 27.4175 22.4832 27.4175Z" fill="#FFB6B6"/>
<path d="M27.7881 23.5539H22.4144L22.3593 22.7824L22.0838 23.5539H21.2563L21.1471 22.0248L20.601 23.5539H19V23.4781C19.0012 22.4136 19.4246 21.393 20.1773 20.6403C20.9301 19.8875 21.9507 19.4641 23.0152 19.4629H23.7728C24.8374 19.4641 25.858 19.8875 26.6107 20.6403C27.3635 21.393 27.7869 22.4136 27.7881 23.4781V23.5539Z" fill="#2F2E41"/>
<path d="M22.371 28.3526C22.3305 28.3526 22.2901 28.349 22.2503 28.342L18.3154 27.6477V21.1445H22.647L22.5397 21.2696C21.0477 23.0097 22.1718 25.8313 22.9746 27.3583C23.0338 27.4701 23.0602 27.5964 23.0507 27.7226C23.0413 27.8488 22.9964 27.9697 22.9212 28.0715C22.8583 28.1585 22.7756 28.2294 22.6799 28.2783C22.5843 28.3271 22.4784 28.3526 22.371 28.3526Z" fill="#2F2E41"/>
<path d="M130.962 84.1631H129.105L128.221 76.998L130.962 76.9982L130.962 84.1631Z" fill="#9E616A"/>
<path d="M131.435 85.9639L125.445 85.9637V85.8879C125.445 85.2697 125.691 84.6767 126.128 84.2395C126.565 83.8023 127.158 83.5567 127.777 83.5566L131.435 83.5568L131.435 85.9639Z" fill="#2F2E41"/>
<path d="M124.294 84.1631H122.437L121.553 76.998L124.295 76.9982L124.294 84.1631Z" fill="#9E616A"/>
<path d="M124.769 85.9639L118.779 85.9637V85.8879C118.779 85.2697 119.025 84.6767 119.462 84.2395C119.899 83.8023 120.492 83.5567 121.111 83.5566L124.769 83.5568L124.769 85.9639Z" fill="#2F2E41"/>
<path d="M102.659 33.9557C102.807 34.1598 102.999 34.329 103.22 34.4511C103.441 34.5733 103.686 34.6456 103.937 34.6629C104.189 34.6801 104.442 34.6419 104.677 34.551C104.913 34.4601 105.126 34.3187 105.301 34.1367L108.976 35.572L110.393 33.5511L105.174 31.597C104.849 31.3234 104.434 31.1786 104.01 31.1901C103.585 31.2015 103.179 31.3685 102.869 31.6592C102.559 31.9499 102.366 32.3443 102.328 32.7675C102.289 33.1908 102.407 33.6135 102.659 33.9557Z" fill="#9E616A"/>
<path d="M124.271 46.2031L119.432 47.7818L121.048 82.0548L124.783 82.1472L126.695 57.9774L127.129 82.0517L131.747 82.3063L133.449 46.2031H124.271Z" fill="#2F2E41"/>
<path d="M121.006 25.9975L133.427 23.2988L134.808 33.9938L133.658 39.1039L134.118 46.8699C134.118 46.8699 124.297 51.7581 119.432 47.7795C119.432 47.7795 123.342 37.5081 121.075 32.6998L121.006 25.9975Z" fill="#3F3D56"/>
<path d="M123.156 27.5105L121.005 25.9978C121.005 25.9978 120.878 25.8218 119.086 27.9174C117.293 30.013 113.657 33.3464 113.657 33.3464L107.596 31.0737L106.492 35.1533L113.536 38.4358L123.508 31.7758L123.156 27.5105Z" fill="#3F3D56"/>
<path d="M134.12 50.8793C134.348 50.7715 134.55 50.6149 134.711 50.4206C134.872 50.2264 134.989 49.9991 135.053 49.7549C135.117 49.5107 135.126 49.2554 135.081 49.0071C135.035 48.7588 134.936 48.5234 134.79 48.3177L136.885 44.9738L135.163 43.2051L132.271 47.9688C131.941 48.2374 131.722 48.6175 131.654 49.0371C131.586 49.4566 131.675 49.8865 131.903 50.2452C132.13 50.604 132.482 50.8667 132.891 50.9836C133.299 51.1004 133.737 51.0633 134.12 50.8793Z" fill="#9E616A"/>
<path d="M131.489 25.4076L133.427 23.3007C133.427 23.3007 135.585 22.549 137.349 26.4334C139.112 30.3177 141.082 38.1967 141.082 38.1967L136.477 47.0677L132.9 45.4696L136.477 38.1341L132.692 32.7017L131.489 25.4076Z" fill="#3F3D56"/>
<path d="M128.204 22.4208C130.158 21.3528 130.876 18.9031 129.808 16.9492C128.74 14.9954 126.29 14.2774 124.337 15.3454C122.383 16.4135 121.665 18.8632 122.733 20.817C123.801 22.7708 126.25 23.4889 128.204 22.4208Z" fill="#9E616A"/>
<path d="M130.062 15.6611L130.258 15.2677L129.274 14.779C129.274 14.779 128.189 13.0137 126.226 13.5098C124.263 14.0059 123.38 14.3028 123.38 14.3028L122.399 14.7964L122.891 15.2863L122.008 15.5832L122.598 15.8764L121.911 16.271L122.281 18.2941C122.281 18.2941 122.895 16.7597 124.075 17.3461C125.255 17.9324 127.414 17.0429 127.414 17.0429L129.289 20.6726C129.289 20.6726 129.676 19.4002 130.366 19.7395C130.366 19.7395 132.128 16.9328 130.062 15.6611Z" fill="#2F2E41"/>
<path d="M45.4557 86.0003H0.151519C0.111334 86.0003 0.072794 85.9843 0.0443787 85.9559C0.0159634 85.9275 0 85.889 0 85.8488C0 85.8086 0.0159634 85.7701 0.0443787 85.7416C0.072794 85.7132 0.111334 85.6973 0.151519 85.6973H45.4557C45.4958 85.6973 45.5344 85.7132 45.5628 85.7416C45.5912 85.7701 45.6072 85.8086 45.6072 85.8488C45.6072 85.889 45.5912 85.9275 45.5628 85.9559C45.5344 85.9843 45.4958 86.0003 45.4557 86.0003Z" fill="#CACACA"/>
<path d="M141.064 86.0003H106.366C106.326 86.0003 106.288 85.9843 106.259 85.9559C106.231 85.9275 106.215 85.889 106.215 85.8488C106.215 85.8086 106.231 85.7701 106.259 85.7416C106.288 85.7132 106.326 85.6973 106.366 85.6973H141.064C141.104 85.6973 141.143 85.7132 141.171 85.7416C141.2 85.7701 141.216 85.8086 141.216 85.8488C141.216 85.889 141.2 85.9275 141.171 85.9559C141.143 85.9843 141.104 86.0003 141.064 86.0003Z" fill="#CACACA"/>
</svg>
